<svg width="121" height="16" viewBox="0 0 121 16" fill="none" xmlns="http://www.w3.org/2000/svg">
<path d="M120.151 16H107.926L105.21 13.3333V0H120.151V2.66667H107.926V6.66667H116.076V9.33333H107.926V12.4444L108.832 13.3333H120.151V16Z" fill="url(#paint0_linear_1_401)"/>
<path d="M91.1457 16H88.4517V0L92.1871 0.0222219L100.631 8.66667L100.677 0H103.393V16H100.677V12.5556L91.1457 2.82222V16Z" fill="url(#paint1_linear_1_401)"/>
<path d="M86.6356 16H83.9416V0H86.6356V16Z" fill="url(#paint2_linear_1_401)"/>
<path d="M69.8776 16L67.1836 13.3333V0H69.8776V12.4444L70.7831 13.3333H82.1252V16H69.8776Z" fill="url(#paint3_linear_1_401)"/>
<path d="M65.3671 0V7.68889L53.1422 11.2444V16H50.4255V0H65.3671ZM62.6052 5.68889L62.6505 2.66667H53.1422V8.44444L62.6052 5.68889Z" fill="#F6F6F6"/>
<path d="M48.6091 16H36.3841L33.6675 13.3333V0H48.6091V2.66667H36.3841V6.66667H44.5341V9.33333H36.3841V12.4444L37.2897 13.3333H48.6091V16Z" fill="#F6F6F6"/>
<path d="M31.8511 16H19.6261L16.9094 13.3333V0H31.8511V2.66667H19.6261V6.66667H27.7761V9.33333H19.6261V12.4444L20.5316 13.3333H31.8511V16Z" fill="#F6F6F6"/>
<path d="M12.3763 0L15.093 2.66667V13.3333L12.3763 16H0.151367V0H12.3763ZM12.3763 12.4444V3.55556L11.4708 2.66667H2.86803V13.3333H11.4708L12.3763 12.4444Z" fill="#F6F6F6"/>
<defs>
<linearGradient id="paint0_linear_1_401" x1="-361.525" y1="-4.65972" x2="143.082" y2="226.58" gradientUnits="userSpaceOnUse">
<stop stop-color="#F72F85"/>
<stop offset="0.500544" stop-color="#4361EE"/>
<stop offset="0.883044" stop-color="#3A0CA3"/>
</linearGradient>
<linearGradient id="paint1_linear_1_401" x1="-226.937" y1="-4.65972" x2="277.67" y2="226.58" gradientUnits="userSpaceOnUse">
<stop stop-color="#F72F85"/>
<stop offset="0.500544" stop-color="#4361EE"/>
<stop offset="0.883044" stop-color="#3A0CA3"/>
</linearGradient>
<linearGradient id="paint2_linear_1_401" x1="-1058.44" y1="-4.65971" x2="-604.482" y2="1149.11" gradientUnits="userSpaceOnUse">
<stop stop-color="#F72F85"/>
<stop offset="0.500544" stop-color="#4361EE"/>
<stop offset="0.883044" stop-color="#3A0CA3"/>
</linearGradient>
<linearGradient id="paint3_linear_1_401" x1="-56.127" y1="-4.65971" x2="448.479" y2="226.58" gradientUnits="userSpaceOnUse">
<stop stop-color="#F72F85"/>
<stop offset="0.500544" stop-color="#4361EE"/>
<stop offset="0.883044" stop-color="#3A0CA3"/>
</linearGradient>
</defs>
</svg>
